<svg width="24" height="24" viewBox="0 0 24 24" fill="none" xmlns="http://www.w3.org/2000/svg">
  <!-- MiniMax-inspired brain/AI icon -->
  <path d="M12 2C8.13 2 5 5.13 5 9C5 12.87 8.13 16 12 16S19 12.87 19 9C19 5.13 15.87 2 12 2ZM12 14C9.24 14 7 11.76 7 9S9.24 4 12 4S17 6.24 17 9S14.76 14 12 14Z" fill="currentColor"/>
  <path d="M12 6C10.34 6 9 7.34 9 9S10.34 12 12 12S15 10.66 15 9S13.66 6 12 6ZM12 10C11.45 10 11 9.55 11 9S11.45 8 12 8S13 8.45 13 9S12.55 10 12 10Z" fill="currentColor"/>
  <!-- Neural connections -->
  <circle cx="8" cy="18" r="1.5" fill="currentColor"/>
  <circle cx="12" cy="20" r="1.5" fill="currentColor"/>
  <circle cx="16" cy="18" r="1.5" fill="currentColor"/>
  <line x1="12" y1="16" x2="8" y2="18" stroke="currentColor" stroke-width="1" opacity="0.6"/>
  <line x1="12" y1="16" x2="12" y2="20" stroke="currentColor" stroke-width="1" opacity="0.6"/>
  <line x1="12" y1="16" x2="16" y2="18" stroke="currentColor" stroke-width="1" opacity="0.6"/>
</svg>
